<svg width="50" height="50" viewBox="0 0 50 50" fill="none" xmlns="http://www.w3.org/2000/svg">
<rect width="50" height="50" rx="12" fill="#0075FF"/>
<path d="M28.084 16.3105C27.1338 15.2847 25.8067 14.7197 24.3418 14.7197C22.8692 14.7197 21.5376 15.2812 20.5918 16.3008C19.6358 17.3315 19.17 18.7324 19.2793 20.2451C19.4961 23.2295 21.7671 25.6572 24.3418 25.6572C26.9165 25.6572 29.1836 23.23 29.4039 20.2461C29.5147 18.7471 29.0459 17.3491 28.084 16.3105Z" fill="white"/>
<path d="M32.9353 36.5937H15.7478C15.5229 36.5967 15.3001 36.5494 15.0957 36.4554C14.8913 36.3614 14.7104 36.223 14.5662 36.0503C14.2488 35.6709 14.1209 35.1528 14.2156 34.6289C14.6277 32.3428 15.9139 30.4224 17.9353 29.0742C19.7312 27.8774 22.0061 27.2188 24.3416 27.2188C26.677 27.2188 28.9519 27.8779 30.7478 29.0742C32.7693 30.4219 34.0554 32.3423 34.4676 34.6284C34.5623 35.1523 34.4344 35.6704 34.117 36.0498C33.9728 36.2226 33.792 36.3611 33.5876 36.4552C33.3832 36.5493 33.1603 36.5966 32.9353 36.5937Z" fill="white"/>
</svg>
