<svg width="11" height="11" viewBox="0 0 11 11" fill="none" xmlns="http://www.w3.org/2000/svg">
<g clip-path="url(#clip0_2201_205)">
<path opacity="0.5" d="M9.16659 3.6642H7.79159V2.84378C7.79159 1.64753 6.91617 0.579618 5.7245 0.465035C4.35867 0.336702 3.20825 1.4092 3.20825 2.74753V3.6642H1.83325V10.0809H9.16659V3.6642ZM5.49992 7.7892C4.99575 7.7892 4.58325 7.3767 4.58325 6.87253C4.58325 6.36837 4.99575 5.95587 5.49992 5.95587C6.00409 5.95587 6.41659 6.36837 6.41659 6.87253C6.41659 7.3767 6.00409 7.7892 5.49992 7.7892ZM4.12492 3.6642V2.74753C4.12492 1.9867 4.73909 1.37253 5.49992 1.37253C6.26075 1.37253 6.87492 1.9867 6.87492 2.74753V3.6642H4.12492Z" fill="white"/>
</g>
<defs>
<clipPath id="clip0_2201_205">
<rect width="11" height="11" fill="white" transform="translate(0 -0.00283813)"/>
</clipPath>
</defs>
</svg>
