<svg width="9" height="11" viewBox="0 0 9 11" fill="none" xmlns="http://www.w3.org/2000/svg">
<path d="M8.16659 3.66456H6.79159V2.84414C6.79159 1.64789 5.91617 0.579973 4.7245 0.46539C3.35867 0.337056 2.20825 1.40956 2.20825 2.74789V3.66456H0.833252V10.0812H8.16659V3.66456ZM4.49992 7.78956C3.99575 7.78956 3.58325 7.37706 3.58325 6.87289C3.58325 6.36872 3.99575 5.95622 4.49992 5.95622C5.00409 5.95622 5.41659 6.36872 5.41659 6.87289C5.41659 7.37706 5.00409 7.78956 4.49992 7.78956ZM3.12492 3.66456V2.74789C3.12492 1.98706 3.73909 1.37289 4.49992 1.37289C5.26075 1.37289 5.87492 1.98706 5.87492 2.74789V3.66456H3.12492Z" fill="white"/>
</svg>
