<svg width="135" height="33" viewBox="0 0 135 33" fill="none" xmlns="http://www.w3.org/2000/svg">
<path d="M30.5525 4.94635V13.0711H32.2498V4.94635C32.2498 2.49608 30.2809 0.5 27.8574 0.5H4.39247C1.96894 0.5 0 2.49309 0 4.94635V28.0477C0 30.4979 1.96894 32.494 4.39247 32.494H21.7203V30.7758H4.39247C2.90765 30.7758 1.70031 29.5537 1.70031 28.0507V4.94635C1.70031 3.44332 2.90765 2.22117 4.39247 2.22117H27.8603C29.3451 2.22117 30.5525 3.44332 30.5525 4.94635Z" fill="white"/>
<path d="M4.79984 10.9645H6.44997V4.38757H4.77032L3.35339 5.03002L3.44195 6.73027L3.58069 6.67948C3.92311 6.53007 4.79984 6.03404 4.79984 4.65053V10.9645Z" fill="white"/>
<path d="M21.7203 28.1313V13.1458H18.4997V19.1699H12.773V13.1458H9.55244V28.1313H12.773V22.1072H18.4997V28.1313H21.7203Z" fill="white"/>
<path d="M29.0558 31.6663C29.7761 31.1135 30.3193 30.1812 30.6676 28.8903L30.8801 28.1582L33.5457 17.4697H30.5407L28.2441 27.97H28.1407L25.8471 17.4697H22.842L25.4811 28.1313H28.2234L28.1466 28.3943C28.002 28.8067 27.7777 29.1204 27.4648 29.3505C27.0249 29.6702 26.2279 29.7957 24.622 29.7987L24.6279 32.5H26.2633C27.3969 32.5 28.3385 32.2161 29.0558 31.6663Z" fill="white"/>
<path d="M41.1027 21.6949C41.0053 20.2755 40.6392 19.149 40.0164 18.3482C39.3964 17.5503 38.564 17.1469 37.5485 17.1469C36.3766 17.1469 35.4468 17.646 34.7855 18.6261C34.1214 19.6121 33.7819 21.0196 33.7819 22.8124C33.7819 24.6053 34.1332 25.9948 34.8269 26.9869C35.5176 27.976 36.4917 28.478 37.7198 28.478C38.7647 28.478 39.5824 28.1015 40.1462 27.3634C40.713 26.6193 41.0348 25.5526 41.1056 24.19V24.1541H41.2768L41.2827 24.184L42.2333 28.1343H44.0605V13.1488H41.1587V18.1659L41.33 21.7307H41.1086L41.1027 21.6949ZM40.4562 24.8354C40.0459 25.3285 39.4761 25.5795 38.7588 25.5795C38.1242 25.5795 37.6223 25.3315 37.2622 24.8444C36.905 24.3603 36.725 23.676 36.725 22.8095C36.725 21.9429 36.9021 21.2377 37.2533 20.7536C37.6076 20.2666 38.1065 20.0185 38.7382 20.0185C39.4555 20.0185 40.0282 20.2666 40.4444 20.7536C40.8606 21.2407 41.0702 21.925 41.0702 22.7885C41.0702 23.6521 40.8636 24.3424 40.4562 24.8354Z" fill="white"/>
<path d="M51.3813 20.5116C51.8123 20.5116 52.3259 20.6401 52.9015 20.8821L53.0255 17.4129C52.6152 17.2366 52.2137 17.1469 51.83 17.1469C50.9592 17.1469 50.3245 17.6191 49.9525 18.5543C49.5747 19.5016 49.374 20.6371 49.3592 21.928V21.9638H49.2293L49.2234 21.9339L48.1873 17.4667H46.363V28.1283H49.2854V24.0764C49.2854 22.9439 49.4596 22.0564 49.799 21.4439C50.1444 20.8253 50.6787 20.5116 51.3813 20.5116Z" fill="white"/>
<path d="M58.8231 28.475C60.4349 28.475 61.7042 27.976 62.6016 26.9929C63.499 26.0068 63.9506 24.6083 63.9506 22.8334C63.9506 21.0584 63.496 19.6331 62.5986 18.641C61.7042 17.6489 60.4319 17.1469 58.8201 17.1469C57.2084 17.1469 55.9125 17.646 55.0122 18.629C54.1089 19.6151 53.6513 21.0196 53.6513 22.8095C53.6513 24.5994 54.1089 25.9888 55.0122 26.9809C55.9154 27.973 57.1995 28.475 58.8231 28.475ZM57.1789 20.5923C57.5656 20.0843 58.1205 19.8243 58.8231 19.8243C59.5257 19.8243 60.054 20.0813 60.4348 20.5923C60.8127 21.1002 61.0046 21.8443 61.0046 22.8095C61.0046 23.7746 60.8127 24.5187 60.4348 25.0267C60.054 25.5346 59.5109 25.7946 58.8231 25.7946C58.1353 25.7946 57.5656 25.5376 57.1789 25.0267C56.7922 24.5217 56.5973 23.7746 56.5973 22.8095C56.5973 21.8443 56.7922 21.0973 57.1789 20.5923Z" fill="white"/>
<path d="M74.1466 27.9879C73.5591 27.5845 72.7473 27.2976 71.7378 27.1273L69.3999 26.7837C69.0073 26.7239 68.7504 26.6522 68.6087 26.5626C68.4641 26.4699 68.3903 26.3444 68.3903 26.1861C68.3903 26.0098 68.5113 25.8872 68.7475 25.8155C68.9689 25.7498 69.3467 25.7169 69.8722 25.7169C71.3865 25.7169 72.5496 25.3344 73.3318 24.5755C74.1141 23.8195 74.5097 22.8124 74.5097 21.5783V16.2355H72.644L72.0064 20.7955H71.8322V20.7596C71.8027 19.7825 71.5695 18.9219 71.1356 18.2077C70.7046 17.4995 69.9725 17.138 68.9571 17.138C68.1748 17.138 67.4959 17.3322 66.9379 17.7117C66.38 18.0942 65.952 18.6171 65.6657 19.2655C65.3793 19.9169 65.2317 20.652 65.2317 21.4439C65.2317 22.6182 65.5387 23.5565 66.1468 24.2258C66.7549 24.8982 67.7232 25.3105 69.025 25.451H69.0574V25.5884H69.022C67.7291 25.6333 66.7431 25.7827 66.0907 26.0396C65.4502 26.2906 65.1255 26.7209 65.1255 27.3186C65.1255 27.8325 65.341 28.2389 65.769 28.5258C66.2029 28.8156 66.8199 29.0338 67.6051 29.1772L70.985 29.7808C71.3363 29.8406 71.5695 29.9272 71.7053 30.0467C71.8411 30.1692 71.909 30.3455 71.909 30.5697C71.909 31.0508 71.6433 31.6753 71.1149 32.4253H74.3178C74.7871 31.6215 75.0233 30.7729 75.0233 29.9033C75.0233 29.0338 74.7281 28.3883 74.1466 27.9879ZM68.6471 22.8304C68.3372 22.5166 68.1807 22.0535 68.1807 21.4558C68.1807 20.8582 68.3372 20.416 68.6471 20.0962C68.9571 19.7735 69.4058 19.6121 69.9814 19.6121C70.557 19.6121 70.9821 19.7795 71.295 20.1082C71.605 20.4369 71.7614 20.8911 71.7614 21.4558C71.7614 22.0505 71.6079 22.5136 71.3039 22.8274C70.9998 23.1411 70.5541 23.3025 69.9814 23.3025C69.4087 23.3025 68.9571 23.1441 68.6471 22.8304Z" fill="white"/>
<path d="M84.2363 18.5334C83.3831 17.6131 82.1847 17.1469 80.6703 17.1469C79.156 17.1469 77.8955 17.6579 76.9981 18.6619C76.1007 19.6689 75.6461 21.0644 75.6461 22.8095C75.6461 24.1452 75.9059 25.2508 76.4166 26.0934C76.9273 26.9361 77.5915 27.5516 78.3885 27.9192C79.1885 28.2867 80.0622 28.475 80.9862 28.475C82.2112 28.475 83.2562 28.2329 84.0946 27.7608L83.9706 24.949C83.6252 25.203 83.2119 25.4091 82.7396 25.5585C82.2437 25.7169 81.7183 25.7976 81.1781 25.7976C79.6608 25.7976 78.7988 25.0476 78.6128 23.5714L78.6069 23.5296H85.42C85.4849 23.2517 85.5174 22.8871 85.5174 22.4479C85.5174 20.7745 85.0894 19.4538 84.2363 18.5334ZM82.7721 22.1341L78.5892 22.421L78.5951 22.3762C78.6807 21.656 78.908 21.0733 79.2741 20.646C79.6401 20.2158 80.1124 19.9976 80.6733 19.9976C81.2755 19.9976 81.7684 20.1859 82.1345 20.5564C82.5005 20.9269 82.716 21.4439 82.7721 22.0953V22.1341Z" fill="white"/>
<path d="M90.698 20.5265C91.0434 20.1769 91.4537 20.0006 91.9142 20.0006C92.4751 20.0006 92.912 20.1889 93.2072 20.5624C93.5024 20.9329 93.65 21.4648 93.65 22.1461V28.1343H96.5517V21.8025C96.5517 20.3681 96.2329 19.2237 95.6041 18.393C94.9783 17.5683 94.1488 17.1499 93.1452 17.1499C91.9172 17.1499 91.0375 17.6041 90.5327 18.4976C90.022 19.4 89.7534 20.4817 89.7416 21.7158V21.7517H89.5704L89.5645 21.7218L88.5933 17.4697H86.7454V28.1313H89.6678V23.3921C89.6678 22.8752 89.7534 22.3493 89.9246 21.8323C90.0958 21.3124 90.3556 20.8731 90.698 20.5265Z" fill="white"/>
</svg>
