<svg width="16" height="16" viewBox="0 0 16 16" fill="none" xmlns="http://www.w3.org/2000/svg">
<path d="M1 3.15385H0.5H1ZM1 12.8462H1.5H1ZM12.8462 15V14.5V15ZM3.15385 15V15.5H3.15385L3.15385 15ZM15 3.15387H14.5H15ZM15 12.8462H15.5H15ZM12.8462 1.00002L12.8462 0.500021L12.8462 1.00002ZM3.15385 1L3.15385 1.5L3.15385 1ZM8 7.46154H7.5H8ZM8 8.53846H8.5H8ZM15 10.6923V11.1923C15.2761 11.1923 15.5 10.9684 15.5 10.6923H15ZM10.1538 10.6923V11.1923V10.6923ZM15 5.3077H15.5V4.8077L15 4.8077L15 5.3077ZM10.1538 5.30769L10.1538 5.80769L10.1538 5.30769ZM10.7308 8C10.7308 8.02124 10.7135 8.03846 10.6923 8.03846V9.03846C11.2658 9.03846 11.7308 8.57352 11.7308 8H10.7308ZM10.6923 8.03846C10.6711 8.03846 10.6538 8.02124 10.6538 8H9.65385C9.65385 8.57352 10.1188 9.03846 10.6923 9.03846V8.03846ZM10.6538 8C10.6538 7.97876 10.6711 7.96154 10.6923 7.96154V6.96154C10.1188 6.96154 9.65385 7.42647 9.65385 8H10.6538ZM10.6923 7.96154C10.7135 7.96154 10.7308 7.97876 10.7308 8H11.7308C11.7308 7.42647 11.2658 6.96154 10.6923 6.96154V7.96154ZM0.5 3.15385L0.5 12.8462H1.5L1.5 3.15385L0.5 3.15385ZM12.8462 14.5L3.15385 14.5L3.15385 15.5L12.8462 15.5V14.5ZM14.5 3.15387V12.8462H15.5V3.15387H14.5ZM12.8462 0.500021L3.15385 0.5L3.15385 1.5L12.8462 1.50002L12.8462 0.500021ZM15.5 3.15387C15.5 1.68819 14.3118 0.500024 12.8462 0.500021L12.8462 1.50002C13.7595 1.50002 14.5 2.24048 14.5 3.15387H15.5ZM1.5 3.15385C1.5 2.24045 2.24046 1.5 3.15385 1.5L3.15385 0.5C1.68817 0.499997 0.5 1.68817 0.5 3.15385L1.5 3.15385ZM0.5 12.8462C0.5 14.3118 1.68817 15.5 3.15385 15.5L3.15385 14.5C2.24045 14.5 1.5 13.7595 1.5 12.8462H0.5ZM12.8462 15.5C14.3118 15.5 15.5 14.3118 15.5 12.8462H14.5C14.5 13.7595 13.7595 14.5 12.8462 14.5V15.5ZM7.5 7.46154V8.53846H8.5V7.46154H7.5ZM15 10.1923L10.1538 10.1923V11.1923L15 11.1923V10.1923ZM14.5 5.3077L14.5 10.6923H15.5L15.5 5.3077H14.5ZM15 4.8077L10.1539 4.80769L10.1538 5.80769L15 5.8077L15 4.8077ZM8.5 7.46154C8.5 6.54814 9.24045 5.80769 10.1538 5.80769L10.1539 4.80769C8.68817 4.80769 7.5 5.99586 7.5 7.46154H8.5ZM7.5 8.53846C7.5 10.0041 8.68817 11.1923 10.1538 11.1923V10.1923C9.24045 10.1923 8.5 9.45185 8.5 8.53846H7.5Z" fill="#13FCE4"/>
</svg>
