<svg width="20" height="20" viewBox="0 0 20 20" fill="none" xmlns="http://www.w3.org/2000/svg">
<path d="M15.671 4.69151C14.61 4.19434 13.4904 3.8397 12.34 3.63647C12.3296 3.63468 12.3189 3.63622 12.3093 3.64089C12.2998 3.64557 12.292 3.65313 12.2868 3.66256C12.1426 3.92345 11.9831 4.26469 11.8716 4.53184C10.6316 4.33999 9.37044 4.33999 8.13049 4.53184C8.00667 4.23399 7.86598 3.94374 7.70914 3.66256C7.704 3.65313 7.69613 3.64557 7.6866 3.64089C7.67708 3.63622 7.66637 3.63468 7.65595 3.63647C6.5054 3.83892 5.38552 4.19373 4.32497 4.69151C4.31585 4.69496 4.30823 4.70162 4.30349 4.71029C2.18238 7.94428 1.60045 11.099 1.88579 14.214C1.88783 14.2293 1.89499 14.2422 1.90726 14.2526C3.14267 15.1858 4.52416 15.8985 5.99302 16.3606C6.00339 16.3639 6.01453 16.3638 6.02483 16.3602C6.03513 16.3567 6.04405 16.3499 6.05029 16.3408C6.36597 15.9025 6.64483 15.4402 6.88687 14.9539C6.8919 14.9439 6.89362 14.9325 6.89178 14.9214C6.88994 14.9103 6.88463 14.9001 6.87664 14.8923L6.85823 14.8808C6.41781 14.7076 5.9911 14.5 5.58188 14.2599C5.57046 14.2533 5.56197 14.2425 5.55816 14.2296C5.55435 14.2168 5.55552 14.203 5.56143 14.191L5.57677 14.1712C5.66336 14.1051 5.74791 14.0373 5.8304 13.9677C5.83763 13.9618 5.8463 13.958 5.85549 13.9567C5.86468 13.9554 5.87404 13.9567 5.88256 13.9604C8.56106 15.2085 11.4605 15.2085 14.1062 13.9604C14.115 13.9563 14.1248 13.9548 14.1344 13.956C14.144 13.9573 14.153 13.9614 14.1604 13.9677C14.2429 14.0373 14.3275 14.1051 14.4141 14.1712C14.4213 14.1762 14.4271 14.1831 14.431 14.191C14.4349 14.199 14.4367 14.2078 14.4363 14.2167C14.4359 14.2256 14.4332 14.2342 14.4286 14.2418C14.424 14.2494 14.4176 14.2556 14.41 14.2599C14.0025 14.5038 13.5751 14.7112 13.1326 14.8798C13.1255 14.8824 13.1191 14.8865 13.1138 14.892C13.1085 14.8974 13.1045 14.9039 13.1019 14.9111C13.0994 14.918 13.0984 14.9254 13.0989 14.9328C13.0995 14.9402 13.1015 14.9474 13.105 14.9539C13.3504 15.4391 13.6317 15.9025 13.9405 16.3408C13.9468 16.3499 13.9557 16.3567 13.966 16.3602C13.9763 16.3638 13.9874 16.3639 13.9978 16.3606C15.4696 15.9011 16.8535 15.1881 18.0897 14.2526C18.0958 14.2482 18.101 14.2424 18.1047 14.2357C18.1084 14.2291 18.1106 14.2216 18.1112 14.214C18.4528 10.6127 17.5395 7.48407 15.6914 4.71133C15.6898 4.7066 15.6871 4.70233 15.6836 4.69888C15.68 4.69543 15.6757 4.6929 15.671 4.69151ZM7.28675 12.3168C6.47983 12.3168 5.81609 11.5613 5.81609 10.6346C5.81609 9.7079 6.46756 8.95132 7.28675 8.95132C8.11209 8.95132 8.76969 9.71312 8.75742 10.6346C8.75742 11.5613 8.10595 12.3168 7.28675 12.3168ZM12.7235 12.3168C11.9176 12.3168 11.2528 11.5613 11.2528 10.6346C11.2528 9.7079 11.9043 8.95132 12.7235 8.95132C13.5488 8.95132 14.2075 9.71312 14.1942 10.6346C14.1942 11.5613 13.5488 12.3168 12.7235 12.3168Z" fill="white"/>
</svg>
