<svg width="20" height="20" viewBox="0 0 20 20" fill="none" xmlns="http://www.w3.org/2000/svg">
<path d="M10.3497 2.72656C9.9099 2.72656 9.50899 2.95337 8.70854 3.40497L4.32379 5.87713C3.56876 6.29446 2.93956 6.8992 2.49964 7.63036C2.05973 8.36152 1.82465 9.19324 1.81812 10.0416L1.81812 10.1991C1.8247 11.0464 2.05924 11.8771 2.49814 12.6075C2.93704 13.338 3.56482 13.9425 4.31833 14.3603L7.06128 15.9099C8.66627 16.8171 9.46877 17.272 10.3504 17.272C11.2313 17.2727 12.0344 16.8197 13.6401 15.9125L16.5385 14.2762C17.341 13.8226 17.7412 13.5958 17.9615 13.2229C18.1817 12.8493 18.1824 12.3957 18.1817 11.4885V9.73413C18.1818 9.61241 18.1492 9.4928 18.0872 9.38731C18.0251 9.28182 17.9358 9.19415 17.8282 9.13312C17.7205 9.07208 17.5984 9.03983 17.474 9.03959C17.3496 9.03935 17.2273 9.07114 17.1194 9.13177L11.1685 12.4831C10.7683 12.7079 10.5685 12.8213 10.3497 12.8213C10.1294 12.8213 9.92967 12.7093 9.52877 12.4838L5.50333 10.2204C5.30083 10.1064 5.19924 10.0497 5.1181 10.0396C5.02849 10.0284 4.9376 10.0464 4.85946 10.0907C4.78133 10.1351 4.72031 10.2034 4.68583 10.2851C4.65515 10.3592 4.65515 10.4732 4.65651 10.702C4.65788 10.8701 4.65651 10.9542 4.67356 11.0316C4.70969 11.2044 4.80242 11.3604 4.93742 11.4765C4.9981 11.5279 5.07242 11.5699 5.22106 11.654L9.52672 14.0888C9.92831 14.3156 10.1294 14.429 10.3497 14.429C10.5706 14.429 10.7704 14.3156 11.1719 14.0894L16.4492 11.1083C16.5869 11.0309 16.6551 10.9936 16.7062 11.0216C16.7574 11.0509 16.7574 11.1283 16.7574 11.2831V12.0789C16.7574 12.3057 16.7581 12.4191 16.7028 12.5118C16.6483 12.6052 16.5481 12.6612 16.3469 12.7746L11.9956 15.2328C11.1924 15.6864 10.7908 15.9132 10.3504 15.9132C9.9099 15.9132 9.50763 15.6864 8.70582 15.2314L4.63538 12.9287L4.60606 12.912C4.18684 12.6719 3.83873 12.3291 3.59593 11.9174C3.35314 11.5057 3.22403 11.0393 3.22129 10.564V9.7995C3.22149 9.53688 3.29212 9.2789 3.42612 9.05135C3.56012 8.82379 3.7528 8.63461 3.98492 8.50272C4.19023 8.38638 4.42326 8.32506 4.66051 8.32494C4.89777 8.32483 5.13086 8.38591 5.33628 8.50205L8.70854 10.4085C9.50899 10.8615 9.9099 11.0883 10.3497 11.0889C10.7894 11.0889 11.1904 10.8621 11.9928 10.4105L17.0942 7.53814C17.2075 7.47432 17.3016 7.38242 17.367 7.27169C17.4325 7.16097 17.4669 7.03532 17.4669 6.90742C17.4669 6.77952 17.4325 6.65388 17.367 6.54315C17.3016 6.43242 17.2075 6.34052 17.0942 6.27671L11.9908 3.4023C11.1897 2.95203 10.7894 2.72656 10.3504 2.72656H10.3497Z" fill="white"/>
</svg>
