<svg width="20" height="20" viewBox="0 0 20 20" fill="none" xmlns="http://www.w3.org/2000/svg">
<path d="M13.6455 2.7082C14.6116 2.71109 15.5373 3.09616 16.2204 3.77931C16.9036 4.46246 17.2887 5.38818 17.2915 6.3543V13.6457C17.2887 14.6118 16.9036 15.5375 16.2204 16.2207C15.5373 16.9038 14.6116 17.2889 13.6455 17.2918H6.35405C5.38793 17.2889 4.46221 16.9038 3.77906 16.2207C3.09591 15.5375 2.71084 14.6118 2.70796 13.6457V6.3543C2.71084 5.38818 3.09591 4.46246 3.77906 3.77931C4.46221 3.09616 5.38793 2.71109 6.35405 2.7082H13.6455ZM13.6455 1.25H6.35405C3.54663 1.25 1.24976 3.54687 1.24976 6.3543V13.6457C1.24976 16.4531 3.54663 18.75 6.35405 18.75H13.6455C16.4529 18.75 18.7498 16.4531 18.7498 13.6457V6.3543C18.7498 3.54687 16.4529 1.25 13.6455 1.25Z" fill="white"/>
<path d="M14.7393 6.35352C14.5229 6.35352 14.3115 6.28937 14.1316 6.16919C13.9517 6.049 13.8115 5.87818 13.7288 5.67833C13.646 5.47847 13.6243 5.25855 13.6665 5.04639C13.7087 4.83422 13.8129 4.63933 13.9659 4.48637C14.1188 4.3334 14.3137 4.22923 14.5259 4.18703C14.738 4.14483 14.958 4.16649 15.1578 4.24927C15.3577 4.33206 15.5285 4.47224 15.6487 4.65211C15.7689 4.83198 15.833 5.04344 15.833 5.25977C15.8333 5.40349 15.8052 5.54585 15.7504 5.67869C15.6955 5.81153 15.615 5.93223 15.5133 6.03385C15.4117 6.13548 15.291 6.21603 15.1582 6.27089C15.0253 6.32574 14.883 6.35382 14.7393 6.35352Z" fill="white"/>
<path d="M9.99976 7.08223C10.5766 7.08223 11.1406 7.25329 11.6202 7.5738C12.0999 7.8943 12.4738 8.34984 12.6945 8.88281C12.9153 9.41579 12.9731 10.0023 12.8605 10.5681C12.748 11.1339 12.4702 11.6536 12.0622 12.0615C11.6543 12.4694 11.1346 12.7472 10.5688 12.8598C10.003 12.9723 9.41652 12.9146 8.88355 12.6938C8.35057 12.473 7.89503 12.0992 7.57453 11.6195C7.25403 11.1398 7.08296 10.5759 7.08296 9.99902C7.08379 9.22569 7.39136 8.48428 7.93818 7.93745C8.48501 7.39062 9.22643 7.08305 9.99976 7.08223ZM9.99976 5.62402C9.13446 5.62402 8.2886 5.88061 7.56914 6.36134C6.84967 6.84207 6.28892 7.52536 5.95778 8.32478C5.62665 9.12421 5.54001 10.0039 5.70882 10.8525C5.87763 11.7012 6.29431 12.4808 6.90617 13.0926C7.51802 13.7045 8.29757 14.1211 9.14624 14.29C9.9949 14.4588 10.8746 14.3721 11.674 14.041C12.4734 13.7099 13.1567 13.1491 13.6374 12.4296C14.1182 11.7102 14.3748 10.8643 14.3748 9.99902C14.3748 8.8387 13.9138 7.7259 13.0933 6.90543C12.2729 6.08496 11.1601 5.62402 9.99976 5.62402Z" fill="white"/>
</svg>
