<svg width="20" height="20" viewBox="0 0 20 20" fill="none" xmlns="http://www.w3.org/2000/svg">
<path fill-rule="evenodd" clip-rule="evenodd" d="M16.4868 3.72281C16.688 3.64572 16.9082 3.61913 17.1245 3.64581C17.3408 3.67249 17.5453 3.75148 17.7167 3.87454C17.8881 3.9976 18.0202 4.16024 18.0991 4.34553C18.178 4.53082 18.201 4.73198 18.1656 4.92809L16.319 15.1255C16.1399 16.1091 14.9545 16.6732 13.9637 16.1833C13.1349 15.7733 11.9038 15.1418 10.7966 14.4828C10.243 14.153 8.54706 13.0967 8.75549 12.3451C8.9346 11.7024 11.7842 9.28739 13.4125 7.85159C14.0516 7.28749 13.7601 6.96208 13.0054 7.48096C11.1312 8.76926 8.12207 10.7284 7.12717 11.2799C6.2495 11.7661 5.79194 11.8492 5.24483 11.7661C4.24667 11.6149 3.32096 11.3807 2.56542 11.0953C1.54447 10.7099 1.59413 9.43193 2.56461 9.05983L16.4868 3.72281Z" fill="white"/>
</svg>
