<svg width="20" height="20" viewBox="0 0 20 20" fill="none" xmlns="http://www.w3.org/2000/svg">
<path d="M19.3748 4.27735C18.6714 4.58296 17.9272 4.7843 17.1658 4.87501C17.966 4.4064 18.5678 3.66195 18.8583 2.78126C18.1017 3.22367 17.2754 3.5341 16.4146 3.69922C16.0521 3.31935 15.6162 3.01716 15.1333 2.811C14.6504 2.60484 14.1307 2.49904 13.6056 2.50001C11.4798 2.50001 9.75952 4.19532 9.75952 6.28516C9.75801 6.57585 9.79132 6.86567 9.85874 7.14844C8.3344 7.07698 6.84176 6.68812 5.47631 6.00675C4.11086 5.32537 2.90268 4.36647 1.92905 3.19141C1.58748 3.76724 1.40684 4.42424 1.40601 5.09376C1.40601 6.40625 2.09077 7.56641 3.12476 8.2461C2.51215 8.23156 1.9121 8.06942 1.37554 7.77344V7.82032C1.37554 9.65625 2.70366 11.1836 4.46147 11.5313C4.13092 11.6194 3.79029 11.664 3.44819 11.6641C3.20545 11.6645 2.96326 11.6409 2.72515 11.5938C3.21382 13.0977 4.63608 14.1914 6.32085 14.2227C4.95186 15.2777 3.27109 15.8479 1.54272 15.8438C1.23593 15.8433 0.92943 15.825 0.624756 15.7891C2.38303 16.9118 4.42688 17.5057 6.51304 17.5C13.5974 17.5 17.4677 11.7305 17.4677 6.72657C17.4677 6.5625 17.4634 6.39844 17.4556 6.23829C18.2068 5.70393 18.8567 5.03989 19.3748 4.27735Z" fill="white"/>
</svg>
