<svg width="48" height="48" viewBox="0 0 48 48" fill="none" xmlns="http://www.w3.org/2000/svg">
<rect width="48" height="48" rx="12" fill="#0075FF"/>
<path d="M22.5474 22.1343C23.5412 22.254 24.264 23.0939 25.1109 23.6229C25.4931 23.8617 25.9457 23.9998 26.431 23.9998C27.7997 23.9998 28.9092 22.9009 28.9092 21.5453C28.9092 20.1897 27.7997 19.0907 26.431 19.0907C25.9457 19.0907 25.4931 19.2289 25.1109 19.4676C24.264 19.9966 23.5412 20.8365 22.5474 20.9563C22.2372 20.9937 21.9123 21.0193 21.6045 21.0193C21.2786 21.0193 20.924 20.9906 20.5837 20.9496C19.5689 20.8273 18.8209 19.9748 17.948 19.4479C17.5727 19.2213 17.1317 19.0907 16.66 19.0907C15.2914 19.0907 14.1819 20.1897 14.1819 21.5453C14.1819 22.9009 15.2914 23.9998 16.66 23.9998C17.1317 23.9998 17.5727 23.8693 17.948 23.6427C18.8209 23.1157 19.5689 22.2632 20.5837 22.141C20.924 22.1 21.2786 22.0713 21.6045 22.0713C21.9123 22.0713 22.2372 22.0969 22.5474 22.1343Z" fill="white"/>
<path d="M25.8656 27.4562C25.7459 28.4501 24.906 29.1729 24.377 30.0197C24.1382 30.4019 24.0001 30.8546 24.0001 31.3399C24.0001 32.7085 25.099 33.818 26.4546 33.818C27.8102 33.818 28.9092 32.7085 28.9092 31.3399C28.9092 30.8546 28.771 30.4019 28.5323 30.0197C28.0033 29.1729 27.1634 28.4501 27.0436 27.4562C27.0062 27.146 26.9806 26.8212 26.9806 26.5134C26.9806 26.1875 27.0093 25.8328 27.0503 25.4925C27.1726 24.4778 28.0251 23.7297 28.552 22.8568C28.7786 22.4815 28.9092 22.0406 28.9092 21.5689C28.9092 20.2002 27.8102 19.0907 26.4546 19.0907C25.099 19.0907 24.0001 20.2002 24.0001 21.5689C24.0001 22.0406 24.1306 22.4815 24.3572 22.8568C24.8842 23.7297 25.7367 24.4778 25.8589 25.4925C25.8999 25.8328 25.9286 26.1875 25.9286 26.5134C25.9286 26.8212 25.903 27.146 25.8656 27.4562Z" fill="white"/>
<path d="M27.4565 17.2252C28.4503 17.3449 29.1731 18.1848 30.02 18.7138C30.4022 18.9526 30.8548 19.0907 31.3401 19.0907C32.7087 19.0907 33.8182 17.9918 33.8182 16.6362C33.8182 15.2806 32.7087 14.1816 31.3401 14.1816C30.8548 14.1816 30.4022 14.3198 30.02 14.5585C29.1731 15.0875 28.4503 15.9274 27.4565 16.0472C27.1463 16.0846 26.8214 16.1102 26.5136 16.1102C26.1877 16.1102 25.8331 16.0815 25.4928 16.0405C24.478 15.9182 23.7299 15.0657 22.8571 14.5388C22.4818 14.3122 22.0408 14.1816 21.5691 14.1816C20.2005 14.1816 19.091 15.2806 19.091 16.6362C19.091 17.9918 20.2005 19.0907 21.5691 19.0907C22.0408 19.0907 22.4818 18.9602 22.8571 18.7336C23.7299 18.2066 24.478 17.3541 25.4928 17.2319C25.8331 17.1909 26.1877 17.1622 26.5136 17.1622C26.8214 17.1622 27.1463 17.1878 27.4565 17.2252Z" fill="white"/>
</svg>
