<svg width="49" height="48" viewBox="0 0 49 48" fill="none" xmlns="http://www.w3.org/2000/svg">
<rect x="0.333252" width="48" height="48" rx="12" fill="#0075FF"/>
<path d="M32.0847 22.967C32.2047 21.9375 33.1042 21.1962 33.667 20.3231C33.9211 19.9291 34.066 19.461 34.0615 18.9578C34.0489 17.5385 32.8532 16.3772 31.3908 16.3639C29.9283 16.3506 28.753 17.4904 28.7656 18.9098C28.7701 19.413 28.9233 19.8838 29.1844 20.2825C29.7628 21.1658 30.6756 21.9236 30.8139 22.9554C30.8571 23.2775 30.8877 23.6146 30.8906 23.9338C30.8936 24.2717 30.8658 24.6393 30.8247 24.9917C30.7022 26.0429 29.7894 26.8103 29.229 27.7103C28.988 28.0973 28.8512 28.5533 28.8555 29.0425C28.8681 30.4618 30.0639 31.6231 31.5263 31.6364C32.9887 31.6497 34.164 30.5098 34.1514 29.0905C34.1471 28.6014 34.0022 28.1428 33.7543 27.7514C33.1778 26.841 32.2512 26.0569 32.11 25.0034C32.0626 24.6501 32.0284 24.282 32.0254 23.9441C32.0226 23.6249 32.0472 23.2883 32.0847 22.967Z" fill="white"/>
<path d="M23.0998 24.8095C24.1202 24.9494 24.8696 25.8724 25.7432 26.4573C26.1374 26.7213 26.603 26.8762 27.1006 26.8808C28.5042 26.8935 29.6314 25.705 29.6182 24.2262C29.6051 22.7474 28.4567 21.5382 27.0531 21.5255C26.5555 21.521 26.0926 21.6675 25.7029 21.9243C24.8396 22.4936 24.1065 23.4031 23.0884 23.5245C22.7707 23.5624 22.4378 23.5873 22.1222 23.5844C21.788 23.5814 21.424 23.5468 21.0746 23.4989C20.0328 23.3561 19.2574 22.4191 18.3571 21.8361C17.97 21.5854 17.5166 21.4389 17.0329 21.4346C15.6293 21.4218 14.5021 22.6103 14.5153 24.0891C14.5284 25.568 15.6768 26.7771 17.0804 26.7898C17.5641 26.7942 18.015 26.6559 18.3977 26.4122C19.2878 25.8455 20.0467 24.9225 21.0861 24.7985C21.4347 24.757 21.7982 24.729 22.1323 24.732C22.448 24.7349 22.7814 24.7658 23.0998 24.8095Z" fill="white"/>
</svg>
