<svg width="49" height="48" viewBox="0 0 49 48" fill="none" xmlns="http://www.w3.org/2000/svg">
<rect x="0.666504" width="48" height="48" rx="12" fill="#0075FF"/>
<path d="M25.7053 17.5018C26.736 17.6325 27.4856 18.5488 28.3638 19.1258C28.7601 19.3863 29.2296 19.537 29.7328 19.537C31.1522 19.537 32.3028 18.3382 32.3028 16.8593C32.3028 15.3805 31.1522 14.1816 29.7328 14.1816C29.2296 14.1816 28.7601 14.3323 28.3638 14.5928C27.4856 15.1699 26.736 16.0861 25.7053 16.2168C25.3837 16.2576 25.0468 16.2855 24.7276 16.2855C24.3896 16.2855 24.0218 16.2542 23.6689 16.2095C22.6166 16.0761 21.8408 15.1461 20.9356 14.5712C20.5464 14.324 20.0891 14.1816 19.6 14.1816C18.1806 14.1816 17.03 15.3805 17.03 16.8593C17.03 18.3382 18.1806 19.537 19.6 19.537C20.0891 19.537 20.5464 19.3946 20.9356 19.1474C21.8408 18.5725 22.6166 17.6425 23.6689 17.5092C24.0218 17.4644 24.3896 17.4331 24.7276 17.4331C25.0468 17.4331 25.3837 17.4611 25.7053 17.5018Z" fill="white"/>
<path d="M25.7053 31.7829C26.736 31.9135 27.4856 32.8298 28.3638 33.4069C28.7601 33.6673 29.2296 33.818 29.7328 33.818C31.1522 33.818 32.3028 32.6192 32.3028 31.1403C32.3028 29.6615 31.1522 28.4626 29.7328 28.4626C29.2296 28.4626 28.7601 28.6134 28.3638 28.8738C27.4856 29.4509 26.736 30.3671 25.7053 30.4978C25.3837 30.5386 25.0468 30.5665 24.7276 30.5665C24.3896 30.5665 24.0218 30.5352 23.6689 30.4905C22.6166 30.3571 21.8408 29.4271 20.9356 28.8522C20.5464 28.6051 20.0891 28.4626 19.6 28.4626C18.1806 28.4626 17.03 29.6615 17.03 31.1403C17.03 32.6192 18.1806 33.818 19.6 33.818C20.0891 33.818 20.5464 33.6756 20.9356 33.4284C21.8408 32.8536 22.6166 31.9235 23.6689 31.7902C24.0218 31.7455 24.3896 31.7141 24.7276 31.7141C25.0468 31.7141 25.3837 31.7421 25.7053 31.7829Z" fill="white"/>
<path d="M25.7053 24.6423C26.736 24.7729 27.4856 25.6892 28.3638 26.2663C28.7601 26.5267 29.2296 26.6774 29.7328 26.6774C31.1522 26.6774 32.3028 25.4786 32.3028 23.9998C32.3028 22.5209 31.1522 21.3221 29.7328 21.3221C29.2296 21.3221 28.7601 21.4728 28.3638 21.7332C27.4856 22.3103 26.736 23.2266 25.7053 23.3572C25.3837 23.398 25.0468 23.426 24.7276 23.426C24.3896 23.426 24.0218 23.3946 23.6689 23.3499C22.6166 23.2166 21.8408 22.2865 20.9356 21.7117C20.5464 21.4645 20.0891 21.3221 19.6 21.3221C18.1806 21.3221 17.03 22.5209 17.03 23.9998C17.03 25.4786 18.1806 26.6774 19.6 26.6774C20.0891 26.6774 20.5464 26.535 20.9356 26.2879C21.8408 25.713 22.6166 24.783 23.6689 24.6496C24.0218 24.6049 24.3896 24.5736 24.7276 24.5736C25.0468 24.5736 25.3837 24.6015 25.7053 24.6423Z" fill="white"/>
</svg>
