<svg width="12" height="11" viewBox="0 0 12 11" fill="none" xmlns="http://www.w3.org/2000/svg">
<path opacity="0.2" d="M11.4701 5.49729C11.4701 8.51887 9.02064 10.9683 5.9991 10.9683C2.97752 10.9683 0.528076 8.51887 0.528076 5.49729C0.528076 2.47575 2.97752 0.0263062 5.9991 0.0263062C9.02061 0.0263062 11.4701 2.47575 11.4701 5.49729Z" fill="#505050"/>
<g opacity="0.8">
<path d="M5.9815 0.997192L5.92358 1.19406V6.90659L5.9815 6.9644L8.6332 5.39699L5.9815 0.997192Z" fill="white"/>
<path d="M5.98153 0.997192L3.32983 5.39699L5.98153 6.96442V4.19173V0.997192Z" fill="white"/>
<path d="M5.98137 7.82712L5.94873 7.86691V9.90184L5.98137 9.99716L8.63466 6.2605L5.98137 7.82712Z" fill="white"/>
<path d="M5.98153 9.99718V7.82712L3.32983 6.2605L5.98153 9.99718Z" fill="white"/>
<path d="M5.98169 6.96442L8.63334 5.39703L5.98169 4.19177V6.96442Z" fill="white"/>
<path d="M3.32983 5.39697L5.98149 6.96438V4.19171L3.32983 5.39697Z" fill="white"/>
</g>
</svg>
