<svg width="12" height="11" viewBox="0 0 12 11" fill="none" xmlns="http://www.w3.org/2000/svg">
<rect x="0.5" y="-0.00280762" width="11" height="11" rx="5.5" fill="#09203F"/>
<path fill-rule="evenodd" clip-rule="evenodd" d="M3.4747 7.38108C2.98655 6.89292 2.98655 6.10146 3.4747 5.61331L5.06052 4.02749C5.54868 3.53934 6.34013 3.53934 6.82829 4.02749L8.4141 5.61331C8.90226 6.10146 8.90226 6.89292 8.4141 7.38108L6.82829 8.96689C6.34013 9.45505 5.54868 9.45505 5.06052 8.96689L3.4747 7.38108ZM3.82826 5.96686C3.53536 6.25976 3.53536 6.73463 3.82826 7.02752L5.41407 8.61334C5.70697 8.90623 6.18184 8.90623 6.47473 8.61334L8.06055 7.02752C8.35344 6.73463 8.35344 6.25976 8.06055 5.96686L6.47473 4.38105C6.18184 4.08815 5.70697 4.08815 5.41407 4.38105L3.82826 5.96686Z" fill="#475770"/>
<path fill-rule="evenodd" clip-rule="evenodd" d="M3.4747 5.43662C2.98655 4.94846 2.98655 4.15701 3.4747 3.66885L5.06052 2.08303C5.54868 1.59488 6.34013 1.59488 6.82829 2.08303L8.4141 3.66885C8.90226 4.15701 8.90226 4.94846 8.4141 5.43662L6.82829 7.02243C6.34013 7.51059 5.54868 7.51059 5.06052 7.02243L3.4747 5.43662ZM3.82826 4.0224C3.53536 4.3153 3.53536 4.79017 3.82826 5.08306L5.41407 6.66888C5.70697 6.96177 6.18184 6.96177 6.47473 6.66888L8.06055 5.08306C8.35344 4.79017 8.35344 4.3153 8.06055 4.0224L6.47473 2.43659C6.18184 2.14369 5.70697 2.14369 5.41407 2.43659L3.82826 4.0224Z" fill="white"/>
</svg>
